<?xml version="1.0" encoding="utf-8"?>
<!-- Generator: Adobe Illustrator 21.0.2, SVG Export Plug-In . SVG Version: 6.00 Build 0)  -->
<svg version="1.1" id="Layer_1" xmlns="http://www.w3.org/2000/svg" xmlns:xlink="http://www.w3.org/1999/xlink" x="0px" y="0px"
	 width="1400px" height="980px" viewBox="0 0 1400 980" enable-background="new 0 0 1400 980" xml:space="preserve">
<g>
	<rect x="90.7" y="324" fill="#231F20" width="159.7" height="23.8"/>
	<rect x="90.7" y="109.6" fill="#231F20" width="159.7" height="23.8"/>
	<rect x="99.9" y="139.7" fill="#231F20" width="141.2" height="178"/>
	<rect x="146.3" y="97.9" fill="#231F20" width="42" height="23.3"/>
	<path fill="#231F20" d="M345.5,228.7h54.6c9.5,0,17.2-7.7,17.2-17.2v-54.6c0-9.5-7.7-17.2-17.2-17.2H250.3v178h60.8
		c9.5,0,17.2-7.7,17.2-17.2v-54.6C328.3,236.4,336,228.7,345.5,228.7z"/>
	<rect x="257.6" y="149.7" fill="#FFFFFF" width="13.8" height="13.8"/>
	<rect x="280.7" y="149.7" fill="#FFFFFF" width="13.8" height="13.8"/>
	<rect x="303.8" y="149.7" fill="#FFFFFF" width="13.8" height="13.8"/>
	<rect x="326.9" y="149.7" fill="#FFFFFF" width="13.8" height="13.8"/>
	<rect x="350.1" y="149.7" fill="#FFFFFF" width="13.8" height="13.8"/>
	<rect x="373.2" y="149.7" fill="#FFFFFF" width="13.8" height="13.8"/>
	<rect x="396.3" y="149.7" fill="#FFFFFF" width="13.8" height="13.8"/>
	<rect x="257.6" y="293.9" fill="#FFFFFF" width="13.8" height="13.8"/>
	<rect x="280.7" y="293.9" fill="#FFFFFF" width="13.8" height="13.8"/>
	<rect x="303.8" y="293.9" fill="#FFFFFF" width="13.8" height="13.8"/>
</g>
<g>
	<path fill="#231F20" d="M791.5,296.4c-14.9,22.8-36.6,40.9-62.1,51.3H907v-51.3H791.5z"/>
	<circle fill="#231F20" cx="678.4" cy="222.8" r="124.9"/>
	<circle fill="#FFFFFF" cx="678.4" cy="153.3" r="36.4"/>
	
		<ellipse transform="matrix(0.309 -0.9511 0.9511 0.309 231.6166 721.5062)" fill="#FFFFFF" cx="612.3" cy="201.4" rx="36.4" ry="36.4"/>
	
		<ellipse transform="matrix(0.5878 -0.809 0.809 0.5878 37.0596 630.8536)" fill="#FFFFFF" cx="637.6" cy="279.1" rx="36.4" ry="36.4"/>
	
		<ellipse transform="matrix(0.809 -0.5878 0.5878 0.809 -26.6548 476.0849)" fill="#FFFFFF" cx="719.3" cy="279.1" rx="36.4" ry="36.4"/>
	
		<ellipse transform="matrix(0.9511 -0.309 0.309 0.9511 -25.7823 239.9304)" fill="#FFFFFF" cx="744.5" cy="201.4" rx="36.4" ry="36.4"/>
	<path fill="#231F20" d="M685.9,281.4c-0.8-11.5,4.3-22.5,13.7-29.4c5.7-4.2,12.5-6.4,19.6-6.4c4.3,0,8.6,0.8,12.6,2.4
		C723.2,266.4,706,278.9,685.9,281.4z M670.9,281.4c-20.1-2.5-37.3-15-45.9-33.3c4-1.6,8.3-2.4,12.6-2.4c7.1,0,13.9,2.2,19.6,6.4
		C666.7,258.9,671.8,269.9,670.9,281.4z M736.5,233.8c-11.2-2.8-20.1-11-23.7-22.1c-3.6-11.1-1.2-23,6.2-31.8
		c11.8,11.2,18.6,26.7,18.6,43C737.5,226.5,737.1,230.2,736.5,233.8z M620.4,233.8c-0.7-3.6-1-7.3-1-11c0-16.3,6.7-31.8,18.6-43
		c7.4,8.8,9.8,20.8,6.2,31.8C640.5,222.8,631.6,231,620.4,233.8z M678.4,186.8c-11.7,0-22.3-6-28.4-15.7c8.7-4.8,18.4-7.3,28.4-7.3
		s19.7,2.5,28.4,7.3C700.7,180.8,690.1,186.8,678.4,186.8z"/>
	<rect x="896.6" y="299.9" fill="#FFFFFF" width="6.9" height="6.9"/>
	<rect x="886.3" y="299.9" fill="#FFFFFF" width="6.9" height="6.9"/>
	<rect x="876" y="299.9" fill="#FFFFFF" width="6.9" height="6.9"/>
	<rect x="865.6" y="299.9" fill="#FFFFFF" width="6.9" height="6.9"/>
	<rect x="855.3" y="299.9" fill="#FFFFFF" width="6.9" height="6.9"/>
	<rect x="845" y="299.9" fill="#FFFFFF" width="6.9" height="6.9"/>
	<rect x="834.6" y="299.9" fill="#FFFFFF" width="6.9" height="6.9"/>
	<rect x="824.3" y="299.9" fill="#FFFFFF" width="6.9" height="6.9"/>
	<rect x="814" y="299.9" fill="#FFFFFF" width="6.9" height="6.9"/>
	<rect x="803.6" y="299.9" fill="#FFFFFF" width="6.9" height="6.9"/>
	<rect x="793.3" y="299.9" fill="#FFFFFF" width="6.9" height="6.9"/>
	<rect x="896.6" y="337.9" fill="#FFFFFF" width="6.9" height="6.9"/>
	<rect x="886.3" y="337.9" fill="#FFFFFF" width="6.9" height="6.9"/>
	<rect x="876" y="337.9" fill="#FFFFFF" width="6.9" height="6.9"/>
	<rect x="865.6" y="337.9" fill="#FFFFFF" width="6.9" height="6.9"/>
	<rect x="855.3" y="337.9" fill="#FFFFFF" width="6.9" height="6.9"/>
	<rect x="845" y="337.9" fill="#FFFFFF" width="6.9" height="6.9"/>
	<rect x="834.6" y="337.9" fill="#FFFFFF" width="6.9" height="6.9"/>
	<rect x="824.3" y="337.9" fill="#FFFFFF" width="6.9" height="6.9"/>
	<rect x="814" y="337.9" fill="#FFFFFF" width="6.9" height="6.9"/>
	<rect x="803.6" y="337.9" fill="#FFFFFF" width="6.9" height="6.9"/>
	<rect x="793.3" y="337.9" fill="#FFFFFF" width="6.9" height="6.9"/>
	<rect x="783" y="337.9" fill="#FFFFFF" width="6.9" height="6.9"/>
	<rect x="772.6" y="337.9" fill="#FFFFFF" width="6.9" height="6.9"/>
	<rect x="752.3" y="337.9" fill="#FFFFFF" width="6.9" height="6.9"/>
	<rect x="762.3" y="337.9" fill="#FFFFFF" width="6.9" height="6.9"/>
	<rect x="876" y="310" fill="#FFFFFF" width="27.6" height="24.8"/>
	<rect x="845" y="310" fill="#FFFFFF" width="27.6" height="24.8"/>
	<rect x="814" y="310" fill="#FFFFFF" width="27.6" height="24.8"/>
	<rect x="783" y="310" fill="#FFFFFF" width="27.6" height="24.8"/>
	<path fill="#FFFFFF" d="M753.7,334.7h25.8v-22.6C772,320.7,763.3,328.3,753.7,334.7z"/>
</g>
<g>
	<rect x="85.4" y="655.4" fill="#231F20" width="132.4" height="19.7"/>
	<rect x="85.4" y="477.6" fill="#231F20" width="132.4" height="19.7"/>
	<rect x="93.1" y="502.6" fill="#231F20" width="117.1" height="147.6"/>
	<rect x="131.6" y="467.9" fill="#231F20" width="34.8" height="19.3"/>
	<path fill="#231F20" d="M464.7,576.4h45.3c7.9,0,14.3-6.4,14.3-14.3v-45.3c0-7.9-6.4-14.3-14.3-14.3H221.1v147.6h215
		c7.9,0,14.3-6.4,14.3-14.3v-45.3C450.4,582.8,456.8,576.4,464.7,576.4z"/>
	<rect x="391.7" y="510.9" fill="#FFFFFF" width="11.4" height="11.4"/>
	<rect x="410.9" y="510.9" fill="#FFFFFF" width="11.4" height="11.4"/>
	<rect x="372.6" y="510.9" fill="#FFFFFF" width="11.4" height="11.4"/>
	<rect x="353.4" y="510.9" fill="#FFFFFF" width="11.4" height="11.4"/>
	<rect x="334.2" y="510.9" fill="#FFFFFF" width="11.4" height="11.4"/>
	<rect x="315" y="510.9" fill="#FFFFFF" width="11.4" height="11.4"/>
	<rect x="295.9" y="510.9" fill="#FFFFFF" width="11.4" height="11.4"/>
	<rect x="276.7" y="510.9" fill="#FFFFFF" width="11.4" height="11.4"/>
	<rect x="257.5" y="510.9" fill="#FFFFFF" width="11.4" height="11.4"/>
	<rect x="238.4" y="510.9" fill="#FFFFFF" width="11.4" height="11.4"/>
	<rect x="372.6" y="630.5" fill="#FFFFFF" width="11.4" height="11.4"/>
	<rect x="353.4" y="630.5" fill="#FFFFFF" width="11.4" height="11.4"/>
	<rect x="334.2" y="630.5" fill="#FFFFFF" width="11.4" height="11.4"/>
	<rect x="315" y="630.5" fill="#FFFFFF" width="11.4" height="11.4"/>
	<rect x="295.9" y="630.5" fill="#FFFFFF" width="11.4" height="11.4"/>
	<rect x="276.7" y="630.5" fill="#FFFFFF" width="11.4" height="11.4"/>
	<rect x="257.5" y="630.5" fill="#FFFFFF" width="11.4" height="11.4"/>
	<rect x="238.4" y="630.5" fill="#FFFFFF" width="11.4" height="11.4"/>
	<rect x="430.1" y="510.9" fill="#FFFFFF" width="11.4" height="11.4"/>
	<rect x="449.3" y="510.9" fill="#FFFFFF" width="11.4" height="11.4"/>
	<rect x="468.4" y="510.9" fill="#FFFFFF" width="11.4" height="11.4"/>
	<rect x="487.6" y="510.9" fill="#FFFFFF" width="11.4" height="11.4"/>
	<rect x="506.8" y="510.9" fill="#FFFFFF" width="11.4" height="11.4"/>
	<rect x="391.7" y="630.5" fill="#FFFFFF" width="11.4" height="11.4"/>
	<rect x="410.9" y="630.5" fill="#FFFFFF" width="11.4" height="11.4"/>
	<rect x="430.1" y="630.5" fill="#FFFFFF" width="11.4" height="11.4"/>
	<rect x="100.1" y="508.4" fill="#FFFFFF" width="11.6" height="136"/>
	<rect x="372.7" y="531.2" fill="#FFFFFF" width="68.8" height="90.4"/>
	<rect x="295.9" y="531.2" fill="#FFFFFF" width="68.8" height="90.4"/>
	<rect x="219.1" y="531.2" fill="#FFFFFF" width="68.8" height="90.4"/>
</g>
<g>
	<rect x="1001" y="190.7" fill="#231F20" width="356.8" height="75.8"/>
	<g>
		<rect x="1006.5" y="196.1" fill="#FFFFFF" width="11" height="11"/>
		<rect x="1023.2" y="196.1" fill="#FFFFFF" width="11" height="11"/>
		<rect x="1040" y="196.1" fill="#FFFFFF" width="11" height="11"/>
		<rect x="1056.8" y="196.1" fill="#FFFFFF" width="11" height="11"/>
		<rect x="1073.5" y="196.1" fill="#FFFFFF" width="11" height="11"/>
		<rect x="1090.2" y="196.1" fill="#FFFFFF" width="11" height="11"/>
		<rect x="1107" y="196.1" fill="#FFFFFF" width="11" height="11"/>
		<rect x="1123.8" y="196.1" fill="#FFFFFF" width="11" height="11"/>
		<rect x="1140.5" y="196.1" fill="#FFFFFF" width="11" height="11"/>
		<rect x="1157.2" y="196.1" fill="#FFFFFF" width="11" height="11"/>
		<rect x="1174" y="196.1" fill="#FFFFFF" width="11" height="11"/>
		<rect x="1190.8" y="196.1" fill="#FFFFFF" width="11" height="11"/>
		<rect x="1207.5" y="196.1" fill="#FFFFFF" width="11" height="11"/>
		<rect x="1224.2" y="196.1" fill="#FFFFFF" width="11" height="11"/>
		<rect x="1241" y="196.1" fill="#FFFFFF" width="11" height="11"/>
		<rect x="1257.8" y="196.1" fill="#FFFFFF" width="11" height="11"/>
		<rect x="1274.5" y="196.1" fill="#FFFFFF" width="11" height="11"/>
		<rect x="1291.2" y="196.1" fill="#FFFFFF" width="11" height="11"/>
		<rect x="1308" y="196.1" fill="#FFFFFF" width="11" height="11"/>
		<rect x="1324.8" y="196.1" fill="#FFFFFF" width="11" height="11"/>
		<rect x="1341.5" y="196.1" fill="#FFFFFF" width="11" height="11"/>
		<rect x="1006.5" y="250.2" fill="#FFFFFF" width="11" height="11"/>
		<rect x="1023.2" y="250.2" fill="#FFFFFF" width="11" height="11"/>
		<rect x="1040" y="250.2" fill="#FFFFFF" width="11" height="11"/>
		<rect x="1056.8" y="250.2" fill="#FFFFFF" width="11" height="11"/>
		<rect x="1073.5" y="250.2" fill="#FFFFFF" width="11" height="11"/>
		<rect x="1090.2" y="250.2" fill="#FFFFFF" width="11" height="11"/>
		<rect x="1107" y="250.2" fill="#FFFFFF" width="11" height="11"/>
		<rect x="1123.8" y="250.2" fill="#FFFFFF" width="11" height="11"/>
		<rect x="1140.5" y="250.2" fill="#FFFFFF" width="11" height="11"/>
		<rect x="1157.2" y="250.2" fill="#FFFFFF" width="11" height="11"/>
		<rect x="1174" y="250.2" fill="#FFFFFF" width="11" height="11"/>
		<rect x="1190.8" y="250.2" fill="#FFFFFF" width="11" height="11"/>
		<rect x="1207.5" y="250.2" fill="#FFFFFF" width="11" height="11"/>
		<rect x="1224.2" y="250.2" fill="#FFFFFF" width="11" height="11"/>
		<rect x="1241" y="250.2" fill="#FFFFFF" width="11" height="11"/>
		<rect x="1257.8" y="250.2" fill="#FFFFFF" width="11" height="11"/>
		<rect x="1274.5" y="250.2" fill="#FFFFFF" width="11" height="11"/>
		<rect x="1291.2" y="250.2" fill="#FFFFFF" width="11" height="11"/>
		<rect x="1308" y="250.2" fill="#FFFFFF" width="11" height="11"/>
		<rect x="1324.8" y="250.2" fill="#FFFFFF" width="11" height="11"/>
		<rect x="1341.5" y="250.2" fill="#FFFFFF" width="11" height="11"/>
	</g>
</g>
<g>
	<rect x="56.4" y="804.3" fill="#231F20" width="1318.2" height="92.2"/>
	<rect x="97.1" y="809.7" fill="#FFFFFF" width="11" height="11"/>
	<rect x="113.9" y="809.7" fill="#FFFFFF" width="11" height="11"/>
	<rect x="130.6" y="809.7" fill="#FFFFFF" width="11" height="11"/>
	<rect x="147.4" y="809.7" fill="#FFFFFF" width="11" height="11"/>
	<rect x="164.1" y="809.7" fill="#FFFFFF" width="11" height="11"/>
	<rect x="180.9" y="809.7" fill="#FFFFFF" width="11" height="11"/>
	<rect x="197.6" y="809.7" fill="#FFFFFF" width="11" height="11"/>
	<rect x="214.4" y="809.7" fill="#FFFFFF" width="11" height="11"/>
	<rect x="231.1" y="809.7" fill="#FFFFFF" width="11" height="11"/>
	<rect x="247.9" y="809.7" fill="#FFFFFF" width="11" height="11"/>
	<rect x="264.6" y="809.7" fill="#FFFFFF" width="11" height="11"/>
	<rect x="281.4" y="809.7" fill="#FFFFFF" width="11" height="11"/>
	<rect x="298.1" y="809.7" fill="#FFFFFF" width="11" height="11"/>
	<rect x="314.9" y="809.7" fill="#FFFFFF" width="11" height="11"/>
	<rect x="331.6" y="809.7" fill="#FFFFFF" width="11" height="11"/>
	<rect x="348.4" y="809.7" fill="#FFFFFF" width="11" height="11"/>
	<rect x="365.1" y="809.7" fill="#FFFFFF" width="11" height="11"/>
	<rect x="381.9" y="809.7" fill="#FFFFFF" width="11" height="11"/>
	<rect x="398.6" y="809.7" fill="#FFFFFF" width="11" height="11"/>
	<rect x="415.4" y="809.7" fill="#FFFFFF" width="11" height="11"/>
	<rect x="432.1" y="809.7" fill="#FFFFFF" width="11" height="11"/>
	<rect x="97.1" y="880.2" fill="#FFFFFF" width="11" height="11"/>
	<rect x="113.9" y="880.2" fill="#FFFFFF" width="11" height="11"/>
	<rect x="130.6" y="880.2" fill="#FFFFFF" width="11" height="11"/>
	<rect x="147.4" y="880.2" fill="#FFFFFF" width="11" height="11"/>
	<rect x="164.1" y="880.2" fill="#FFFFFF" width="11" height="11"/>
	<rect x="180.9" y="880.2" fill="#FFFFFF" width="11" height="11"/>
	<rect x="197.6" y="880.2" fill="#FFFFFF" width="11" height="11"/>
	<rect x="214.4" y="880.2" fill="#FFFFFF" width="11" height="11"/>
	<rect x="231.1" y="880.2" fill="#FFFFFF" width="11" height="11"/>
	<rect x="247.9" y="880.2" fill="#FFFFFF" width="11" height="11"/>
	<rect x="264.6" y="880.2" fill="#FFFFFF" width="11" height="11"/>
	<rect x="281.4" y="880.2" fill="#FFFFFF" width="11" height="11"/>
	<rect x="298.1" y="880.2" fill="#FFFFFF" width="11" height="11"/>
	<rect x="314.9" y="880.2" fill="#FFFFFF" width="11" height="11"/>
	<rect x="331.6" y="880.2" fill="#FFFFFF" width="11" height="11"/>
	<rect x="348.4" y="880.2" fill="#FFFFFF" width="11" height="11"/>
	<rect x="365.1" y="880.2" fill="#FFFFFF" width="11" height="11"/>
	<rect x="381.9" y="880.2" fill="#FFFFFF" width="11" height="11"/>
	<rect x="398.6" y="880.2" fill="#FFFFFF" width="11" height="11"/>
	<rect x="415.4" y="880.2" fill="#FFFFFF" width="11" height="11"/>
	<rect x="432.1" y="880.2" fill="#FFFFFF" width="11" height="11"/>
	<rect x="97.1" y="827.4" fill="#FFFFFF" width="61.2" height="46"/>
	<rect x="180.9" y="827.4" fill="#FFFFFF" width="61.2" height="46"/>
	<rect x="264.6" y="827.4" fill="#FFFFFF" width="61.2" height="46"/>
	<rect x="348.4" y="827.4" fill="#FFFFFF" width="61.2" height="46"/>
	<rect x="415.8" y="809.7" fill="#FFFFFF" width="11" height="11"/>
	<rect x="432.6" y="809.7" fill="#FFFFFF" width="11" height="11"/>
	<rect x="449.3" y="809.7" fill="#FFFFFF" width="11" height="11"/>
	<rect x="466.1" y="809.7" fill="#FFFFFF" width="11" height="11"/>
	<rect x="482.8" y="809.7" fill="#FFFFFF" width="11" height="11"/>
	<rect x="499.6" y="809.7" fill="#FFFFFF" width="11" height="11"/>
	<rect x="516.3" y="809.7" fill="#FFFFFF" width="11" height="11"/>
	<rect x="415.8" y="880.2" fill="#FFFFFF" width="11" height="11"/>
	<rect x="432.6" y="880.2" fill="#FFFFFF" width="11" height="11"/>
	<rect x="449.3" y="880.2" fill="#FFFFFF" width="11" height="11"/>
	<rect x="466.1" y="880.2" fill="#FFFFFF" width="11" height="11"/>
	<rect x="482.8" y="880.2" fill="#FFFFFF" width="11" height="11"/>
	<rect x="499.6" y="880.2" fill="#FFFFFF" width="11" height="11"/>
	<rect x="516.3" y="880.2" fill="#FFFFFF" width="11" height="11"/>
	<rect x="432.6" y="827.4" fill="#FFFFFF" width="61.2" height="46"/>
	<rect x="500.1" y="809.7" fill="#FFFFFF" width="11" height="11"/>
	<rect x="516.8" y="809.7" fill="#FFFFFF" width="11" height="11"/>
	<rect x="533.6" y="809.7" fill="#FFFFFF" width="11" height="11"/>
	<rect x="550.3" y="809.7" fill="#FFFFFF" width="11" height="11"/>
	<rect x="567.1" y="809.7" fill="#FFFFFF" width="11" height="11"/>
	<rect x="583.8" y="809.7" fill="#FFFFFF" width="11" height="11"/>
	<rect x="600.6" y="809.7" fill="#FFFFFF" width="11" height="11"/>
	<rect x="500.1" y="880.2" fill="#FFFFFF" width="11" height="11"/>
	<rect x="516.8" y="880.2" fill="#FFFFFF" width="11" height="11"/>
	<rect x="533.6" y="880.2" fill="#FFFFFF" width="11" height="11"/>
	<rect x="550.3" y="880.2" fill="#FFFFFF" width="11" height="11"/>
	<rect x="567.1" y="880.2" fill="#FFFFFF" width="11" height="11"/>
	<rect x="583.8" y="880.2" fill="#FFFFFF" width="11" height="11"/>
	<rect x="600.6" y="880.2" fill="#FFFFFF" width="11" height="11"/>
	<rect x="516.8" y="827.4" fill="#FFFFFF" width="61.2" height="46"/>
	<rect x="584.3" y="809.7" fill="#FFFFFF" width="11" height="11"/>
	<rect x="601" y="809.7" fill="#FFFFFF" width="11" height="11"/>
	<rect x="617.8" y="809.7" fill="#FFFFFF" width="11" height="11"/>
	<rect x="634.5" y="809.7" fill="#FFFFFF" width="11" height="11"/>
	<rect x="651.3" y="809.7" fill="#FFFFFF" width="11" height="11"/>
	<rect x="668" y="809.7" fill="#FFFFFF" width="11" height="11"/>
	<rect x="684.8" y="809.7" fill="#FFFFFF" width="11" height="11"/>
	<rect x="584.3" y="880.2" fill="#FFFFFF" width="11" height="11"/>
	<rect x="601" y="880.2" fill="#FFFFFF" width="11" height="11"/>
	<rect x="617.8" y="880.2" fill="#FFFFFF" width="11" height="11"/>
	<rect x="634.5" y="880.2" fill="#FFFFFF" width="11" height="11"/>
	<rect x="651.3" y="880.2" fill="#FFFFFF" width="11" height="11"/>
	<rect x="668" y="880.2" fill="#FFFFFF" width="11" height="11"/>
	<rect x="684.8" y="880.2" fill="#FFFFFF" width="11" height="11"/>
	<rect x="601" y="827.4" fill="#FFFFFF" width="61.2" height="46"/>
	<rect x="668.5" y="809.7" fill="#FFFFFF" width="11" height="11"/>
	<rect x="685.3" y="809.7" fill="#FFFFFF" width="11" height="11"/>
	<rect x="702" y="809.7" fill="#FFFFFF" width="11" height="11"/>
	<rect x="718.8" y="809.7" fill="#FFFFFF" width="11" height="11"/>
	<rect x="735.5" y="809.7" fill="#FFFFFF" width="11" height="11"/>
	<rect x="752.3" y="809.7" fill="#FFFFFF" width="11" height="11"/>
	<rect x="769" y="809.7" fill="#FFFFFF" width="11" height="11"/>
	<rect x="668.5" y="880.2" fill="#FFFFFF" width="11" height="11"/>
	<rect x="685.3" y="880.2" fill="#FFFFFF" width="11" height="11"/>
	<rect x="702" y="880.2" fill="#FFFFFF" width="11" height="11"/>
	<rect x="718.8" y="880.2" fill="#FFFFFF" width="11" height="11"/>
	<rect x="735.5" y="880.2" fill="#FFFFFF" width="11" height="11"/>
	<rect x="752.3" y="880.2" fill="#FFFFFF" width="11" height="11"/>
	<rect x="769" y="880.2" fill="#FFFFFF" width="11" height="11"/>
	<rect x="685.3" y="827.4" fill="#FFFFFF" width="61.2" height="46"/>
	<rect x="752.3" y="809.7" fill="#FFFFFF" width="11" height="11"/>
	<rect x="769" y="809.7" fill="#FFFFFF" width="11" height="11"/>
	<rect x="752.3" y="880.2" fill="#FFFFFF" width="11" height="11"/>
	<rect x="769" y="880.2" fill="#FFFFFF" width="11" height="11"/>
	<rect x="752.7" y="809.7" fill="#FFFFFF" width="11" height="11"/>
	<rect x="769.5" y="809.7" fill="#FFFFFF" width="11" height="11"/>
	<rect x="786.2" y="809.7" fill="#FFFFFF" width="11" height="11"/>
	<rect x="803" y="809.7" fill="#FFFFFF" width="11" height="11"/>
	<rect x="819.7" y="809.7" fill="#FFFFFF" width="11" height="11"/>
	<rect x="836.5" y="809.7" fill="#FFFFFF" width="11" height="11"/>
	<rect x="853.2" y="809.7" fill="#FFFFFF" width="11" height="11"/>
	<rect x="752.7" y="880.2" fill="#FFFFFF" width="11" height="11"/>
	<rect x="769.5" y="880.2" fill="#FFFFFF" width="11" height="11"/>
	<rect x="786.2" y="880.2" fill="#FFFFFF" width="11" height="11"/>
	<rect x="803" y="880.2" fill="#FFFFFF" width="11" height="11"/>
	<rect x="819.7" y="880.2" fill="#FFFFFF" width="11" height="11"/>
	<rect x="836.5" y="880.2" fill="#FFFFFF" width="11" height="11"/>
	<rect x="853.2" y="880.2" fill="#FFFFFF" width="11" height="11"/>
	<rect x="769.5" y="827.4" fill="#FFFFFF" width="61.2" height="46"/>
	<rect x="836.5" y="809.7" fill="#FFFFFF" width="11" height="11"/>
	<rect x="853.2" y="809.7" fill="#FFFFFF" width="11" height="11"/>
	<rect x="836.5" y="880.2" fill="#FFFFFF" width="11" height="11"/>
	<rect x="853.2" y="880.2" fill="#FFFFFF" width="11" height="11"/>
	<rect x="837" y="809.7" fill="#FFFFFF" width="11" height="11"/>
	<rect x="853.7" y="809.7" fill="#FFFFFF" width="11" height="11"/>
	<rect x="870.5" y="809.7" fill="#FFFFFF" width="11" height="11"/>
	<rect x="887.2" y="809.7" fill="#FFFFFF" width="11" height="11"/>
	<rect x="904" y="809.7" fill="#FFFFFF" width="11" height="11"/>
	<rect x="920.7" y="809.7" fill="#FFFFFF" width="11" height="11"/>
	<rect x="937.5" y="809.7" fill="#FFFFFF" width="11" height="11"/>
	<rect x="837" y="880.2" fill="#FFFFFF" width="11" height="11"/>
	<rect x="853.7" y="880.2" fill="#FFFFFF" width="11" height="11"/>
	<rect x="870.5" y="880.2" fill="#FFFFFF" width="11" height="11"/>
	<rect x="887.2" y="880.2" fill="#FFFFFF" width="11" height="11"/>
	<rect x="904" y="880.2" fill="#FFFFFF" width="11" height="11"/>
	<rect x="920.7" y="880.2" fill="#FFFFFF" width="11" height="11"/>
	<rect x="937.5" y="880.2" fill="#FFFFFF" width="11" height="11"/>
	<rect x="853.7" y="827.4" fill="#FFFFFF" width="61.2" height="46"/>
	<rect x="920.7" y="809.7" fill="#FFFFFF" width="11" height="11"/>
	<rect x="937.5" y="809.7" fill="#FFFFFF" width="11" height="11"/>
	<rect x="920.7" y="880.2" fill="#FFFFFF" width="11" height="11"/>
	<rect x="937.5" y="880.2" fill="#FFFFFF" width="11" height="11"/>
	<rect x="921.2" y="809.7" fill="#FFFFFF" width="11" height="11"/>
	<rect x="937.9" y="809.7" fill="#FFFFFF" width="11" height="11"/>
	<rect x="954.7" y="809.7" fill="#FFFFFF" width="11" height="11"/>
	<rect x="971.4" y="809.7" fill="#FFFFFF" width="11" height="11"/>
	<rect x="988.2" y="809.7" fill="#FFFFFF" width="11" height="11"/>
	<rect x="1004.9" y="809.7" fill="#FFFFFF" width="11" height="11"/>
	<rect x="1021.7" y="809.7" fill="#FFFFFF" width="11" height="11"/>
	<rect x="921.2" y="880.2" fill="#FFFFFF" width="11" height="11"/>
	<rect x="937.9" y="880.2" fill="#FFFFFF" width="11" height="11"/>
	<rect x="954.7" y="880.2" fill="#FFFFFF" width="11" height="11"/>
	<rect x="971.4" y="880.2" fill="#FFFFFF" width="11" height="11"/>
	<rect x="988.2" y="880.2" fill="#FFFFFF" width="11" height="11"/>
	<rect x="1004.9" y="880.2" fill="#FFFFFF" width="11" height="11"/>
	<rect x="1021.7" y="880.2" fill="#FFFFFF" width="11" height="11"/>
	<rect x="937.9" y="827.4" fill="#FFFFFF" width="61.2" height="46"/>
	<rect x="1004.9" y="809.7" fill="#FFFFFF" width="11" height="11"/>
	<rect x="1021.7" y="809.7" fill="#FFFFFF" width="11" height="11"/>
	<rect x="1004.9" y="880.2" fill="#FFFFFF" width="11" height="11"/>
	<rect x="1021.7" y="880.2" fill="#FFFFFF" width="11" height="11"/>
	<rect x="1005.4" y="809.7" fill="#FFFFFF" width="11" height="11"/>
	<rect x="1022.2" y="809.7" fill="#FFFFFF" width="11" height="11"/>
	<rect x="1038.9" y="809.7" fill="#FFFFFF" width="11" height="11"/>
	<rect x="1055.7" y="809.7" fill="#FFFFFF" width="11" height="11"/>
	<rect x="1072.4" y="809.7" fill="#FFFFFF" width="11" height="11"/>
	<rect x="1089.2" y="809.7" fill="#FFFFFF" width="11" height="11"/>
	<rect x="1105.9" y="809.7" fill="#FFFFFF" width="11" height="11"/>
	<rect x="1005.4" y="880.2" fill="#FFFFFF" width="11" height="11"/>
	<rect x="1022.2" y="880.2" fill="#FFFFFF" width="11" height="11"/>
	<rect x="1038.9" y="880.2" fill="#FFFFFF" width="11" height="11"/>
	<rect x="1055.7" y="880.2" fill="#FFFFFF" width="11" height="11"/>
	<rect x="1072.4" y="880.2" fill="#FFFFFF" width="11" height="11"/>
	<rect x="1089.2" y="880.2" fill="#FFFFFF" width="11" height="11"/>
	<rect x="1105.9" y="880.2" fill="#FFFFFF" width="11" height="11"/>
	<rect x="1022.2" y="827.4" fill="#FFFFFF" width="61.2" height="46"/>
	<rect x="1089.2" y="809.7" fill="#FFFFFF" width="11" height="11"/>
	<rect x="1105.9" y="809.7" fill="#FFFFFF" width="11" height="11"/>
	<rect x="1089.2" y="880.2" fill="#FFFFFF" width="11" height="11"/>
	<rect x="1105.9" y="880.2" fill="#FFFFFF" width="11" height="11"/>
	<rect x="1089.6" y="809.7" fill="#FFFFFF" width="11" height="11"/>
	<rect x="1106.4" y="809.7" fill="#FFFFFF" width="11" height="11"/>
	<rect x="1123.1" y="809.7" fill="#FFFFFF" width="11" height="11"/>
	<rect x="1139.9" y="809.7" fill="#FFFFFF" width="11" height="11"/>
	<rect x="1156.6" y="809.7" fill="#FFFFFF" width="11" height="11"/>
	<rect x="1173.4" y="809.7" fill="#FFFFFF" width="11" height="11"/>
	<rect x="1190.1" y="809.7" fill="#FFFFFF" width="11" height="11"/>
	<rect x="1089.6" y="880.2" fill="#FFFFFF" width="11" height="11"/>
	<rect x="1106.4" y="880.2" fill="#FFFFFF" width="11" height="11"/>
	<rect x="1123.1" y="880.2" fill="#FFFFFF" width="11" height="11"/>
	<rect x="1139.9" y="880.2" fill="#FFFFFF" width="11" height="11"/>
	<rect x="1156.6" y="880.2" fill="#FFFFFF" width="11" height="11"/>
	<rect x="1173.4" y="880.2" fill="#FFFFFF" width="11" height="11"/>
	<rect x="1190.1" y="880.2" fill="#FFFFFF" width="11" height="11"/>
	<rect x="1106.4" y="827.4" fill="#FFFFFF" width="61.2" height="46"/>
	<rect x="1173.4" y="809.7" fill="#FFFFFF" width="11" height="11"/>
	<rect x="1190.1" y="809.7" fill="#FFFFFF" width="11" height="11"/>
	<rect x="1173.4" y="880.2" fill="#FFFFFF" width="11" height="11"/>
	<rect x="1190.1" y="880.2" fill="#FFFFFF" width="11" height="11"/>
	<rect x="1173.9" y="809.7" fill="#FFFFFF" width="11" height="11"/>
	<rect x="1190.6" y="809.7" fill="#FFFFFF" width="11" height="11"/>
	<rect x="1207.4" y="809.7" fill="#FFFFFF" width="11" height="11"/>
	<rect x="1224.1" y="809.7" fill="#FFFFFF" width="11" height="11"/>
	<rect x="1240.9" y="809.7" fill="#FFFFFF" width="11" height="11"/>
	<rect x="1257.6" y="809.7" fill="#FFFFFF" width="11" height="11"/>
	<rect x="1274.4" y="809.7" fill="#FFFFFF" width="11" height="11"/>
	<rect x="1173.9" y="880.2" fill="#FFFFFF" width="11" height="11"/>
	<rect x="1190.6" y="880.2" fill="#FFFFFF" width="11" height="11"/>
	<rect x="1207.4" y="880.2" fill="#FFFFFF" width="11" height="11"/>
	<rect x="1224.1" y="880.2" fill="#FFFFFF" width="11" height="11"/>
	<rect x="1240.9" y="880.2" fill="#FFFFFF" width="11" height="11"/>
	<rect x="1257.6" y="880.2" fill="#FFFFFF" width="11" height="11"/>
	<rect x="1274.4" y="880.2" fill="#FFFFFF" width="11" height="11"/>
	<rect x="1190.6" y="827.4" fill="#FFFFFF" width="61.2" height="46"/>
	<rect x="1257.6" y="809.7" fill="#FFFFFF" width="11" height="11"/>
	<rect x="1274.4" y="809.7" fill="#FFFFFF" width="11" height="11"/>
	<rect x="1257.6" y="880.2" fill="#FFFFFF" width="11" height="11"/>
	<rect x="1274.4" y="880.2" fill="#FFFFFF" width="11" height="11"/>
	<rect x="1258.1" y="809.7" fill="#FFFFFF" width="11" height="11"/>
	<rect x="1274.8" y="809.7" fill="#FFFFFF" width="11" height="11"/>
	<rect x="1291.6" y="809.7" fill="#FFFFFF" width="11" height="11"/>
	<rect x="1308.3" y="809.7" fill="#FFFFFF" width="11" height="11"/>
	<rect x="1325.1" y="809.7" fill="#FFFFFF" width="11" height="11"/>
	<rect x="1341.8" y="809.7" fill="#FFFFFF" width="11" height="11"/>
	<rect x="1358.6" y="809.7" fill="#FFFFFF" width="11" height="11"/>
	<rect x="1258.1" y="880.2" fill="#FFFFFF" width="11" height="11"/>
	<rect x="1274.8" y="880.2" fill="#FFFFFF" width="11" height="11"/>
	<rect x="1291.6" y="880.2" fill="#FFFFFF" width="11" height="11"/>
	<rect x="1308.3" y="880.2" fill="#FFFFFF" width="11" height="11"/>
	<rect x="1325.1" y="880.2" fill="#FFFFFF" width="11" height="11"/>
	<rect x="1341.8" y="880.2" fill="#FFFFFF" width="11" height="11"/>
	<rect x="1358.6" y="880.2" fill="#FFFFFF" width="11" height="11"/>
	<rect x="1274.8" y="827.4" fill="#FFFFFF" width="61.2" height="46"/>
	<rect x="61.6" y="809.7" fill="#FFFFFF" width="11" height="11"/>
	<rect x="78.3" y="809.7" fill="#FFFFFF" width="11" height="11"/>
	<rect x="61.6" y="880.2" fill="#FFFFFF" width="11" height="11"/>
	<rect x="78.3" y="880.2" fill="#FFFFFF" width="11" height="11"/>
	<rect x="56.4" y="827.4" fill="#FFFFFF" width="16" height="46"/>
	<rect x="1358.6" y="827.4" fill="#FFFFFF" width="16" height="46"/>
</g>
<g>
	<path fill="#231F20" d="M675.2,605.6c-56.5,16.1-84.8,51.2-84.8,51.2l25.3,34c0,0,36-39.2,86-42.6S675.2,605.6,675.2,605.6z"/>
	<path fill="#FFFFFF" d="M600.7,657.3c9.3-9.4,34-31.2,73.6-43.2c3.6,1.9,10.2,5.6,16.9,9.9c11.9,7.6,16.6,12.5,18.4,14.8
		c-1.5,0.5-4.1,1-8.4,1.3c-40.1,2.7-71.3,26.6-84.5,38.5L600.7,657.3z"/>
	<polygon fill="#231F20" points="691.7,510.1 897.3,448.8 884.6,406.1 659,473.3 670.2,510.6 670.2,701 905.5,701 905.5,510.1 	"/>
	<polygon fill="#FFFFFF" points="678.8,547.4 691.7,517.5 709.1,517.5 696.1,547.4 	"/>
	<polygon fill="#FFFFFF" points="716.3,547.4 729.3,517.5 746.6,517.5 733.7,547.4 	"/>
	<polygon fill="#FFFFFF" points="753.9,547.4 766.8,517.5 784.2,517.5 771.2,547.4 	"/>
	<polygon fill="#FFFFFF" points="791.4,547.4 804.4,517.5 821.7,517.5 808.8,547.4 	"/>
	<polygon fill="#FFFFFF" points="829,547.4 841.9,517.5 859.3,517.5 846.3,547.4 	"/>
	<polygon fill="#FFFFFF" points="866.5,547.4 879.5,517.5 896.9,517.5 883.9,547.4 	"/>
	<rect x="689.3" y="575.8" fill="#FFFFFF" width="197" height="5.2"/>
	<rect x="689.3" y="621.3" fill="#FFFFFF" width="197" height="5.2"/>
	<rect x="784.3" y="578.3" fill="#FFFFFF" width="7" height="98.9"/>
	<polygon fill="#FFFFFF" points="669.4,477.9 686,472.9 707,497.9 690.4,502.8 	"/>
	<polygon fill="#FFFFFF" points="705.4,467.2 722,462.2 743,487.1 726.4,492.1 	"/>
	<polygon fill="#FFFFFF" points="741.4,456.4 758,451.5 779,476.4 762.3,481.4 	"/>
	<polygon fill="#FFFFFF" points="777.4,445.7 794,440.8 815,465.7 798.3,470.6 	"/>
	<polygon fill="#FFFFFF" points="813.4,435 830,430 850.9,454.9 834.3,459.9 	"/>
	<polygon fill="#FFFFFF" points="849.4,424.3 866,419.3 886.9,444.2 870.3,449.2 	"/>
	<path fill="#231F20" d="M753.9,696c0,0-3.2,65.5,55.8,47.5c65.5-20,186.7-172,186.7-172L953,547.4c0,0-86.7,126.5-151.3,148.7
		H753.9z"/>
	<path fill="#FFFFFF" d="M790.9,738.6c-7.8,0-13.9-2.4-18.5-7.2c-7.2-7.6-9.5-19.6-10.2-27.4H803l1.3-0.4
		c58.9-20.2,132.7-119.8,151.2-145.7l28.7,16c-25,30.4-122.5,145.4-176.8,162C801.3,737.7,795.7,738.6,790.9,738.6z"/>
	
		<rect x="626.4" y="631.9" transform="matrix(0.8521 -0.5233 0.5233 0.8521 -247.314 425.8395)" fill="#231F20" width="7" height="37.3"/>
	
		<rect x="655.4" y="618.3" transform="matrix(0.9162 -0.4006 0.4006 0.9162 -199.2525 317.1504)" fill="#231F20" width="7" height="33.7"/>
	
		<rect x="802.4" y="701.3" transform="matrix(0.9681 -0.2506 0.2506 0.9681 -154.7749 224.9143)" fill="#231F20" width="7" height="37.9"/>
	
		<rect x="834.3" y="684.1" transform="matrix(0.8694 -0.4941 0.4941 0.8694 -237.409 505.6565)" fill="#231F20" width="7" height="35.7"/>
	
		<rect x="864.1" y="662.8" transform="matrix(0.7734 -0.634 0.634 0.7734 -233.5836 703.8168)" fill="#231F20" width="7" height="31.5"/>
	
		<rect x="890.4" y="634.3" transform="matrix(0.7478 -0.6639 0.6639 0.7478 -207.8818 758.0327)" fill="#231F20" width="7" height="36.8"/>
	
		<rect x="916.9" y="609.1" transform="matrix(0.7108 -0.7034 0.7034 0.7108 -174.5212 828.6391)" fill="#231F20" width="7" height="34.8"/>
	
		<rect x="941.9" y="576.6" transform="matrix(0.606 -0.7954 0.7954 0.606 -101.9752 986.9318)" fill="#231F20" width="7" height="39.6"/>
</g>
<g>
	<circle fill="#231F20" cx="1182.7" cy="582.7" r="124.9"/>
	<circle fill="#FFFFFF" cx="1182.7" cy="502" r="24.4"/>
	
		<ellipse transform="matrix(0.7071 -0.7071 0.7071 0.7071 -41.9944 949.8922)" fill="#FFFFFF" cx="1125.6" cy="525.6" rx="24.4" ry="24.4"/>
	<circle fill="#FFFFFF" cx="1102" cy="582.7" r="24.4"/>
	
		<ellipse transform="matrix(0.7071 -0.7071 0.7071 0.7071 -122.6951 983.3195)" fill="#FFFFFF" cx="1125.6" cy="639.8" rx="24.4" ry="24.4"/>
	<circle fill="#FFFFFF" cx="1182.7" cy="663.4" r="24.4"/>
	
		<ellipse transform="matrix(0.7071 -0.7071 0.7071 0.7071 -89.2678 1064.0203)" fill="#FFFFFF" cx="1239.8" cy="639.8" rx="24.4" ry="24.4"/>
	<circle fill="#FFFFFF" cx="1263.4" cy="582.7" r="24.4"/>
	
		<ellipse transform="matrix(0.7071 -0.7071 0.7071 0.7071 -8.5671 1030.5929)" fill="#FFFFFF" cx="1239.8" cy="525.6" rx="24.4" ry="24.4"/>
	<path fill="#231F20" d="M1097,479.2c0,0-0.1-36,51.8-45.6c51.9-9.6,76.7-57.4,87.5-88.8l44.1,39.7c0,0-25.8,67.2-65,64.7
		C1150,445,1106.5,466.5,1097,479.2z"/>
</g>
</svg>
