<?xml version="1.0" encoding="utf-8"?>
<!-- Generator: Adobe Illustrator 22.1.0, SVG Export Plug-In . SVG Version: 6.00 Build 0)  -->
<svg version="1.1" id="Layer_1" xmlns="http://www.w3.org/2000/svg" xmlns:xlink="http://www.w3.org/1999/xlink" x="0px" y="0px"
	 viewBox="0 0 1400 980" style="enable-background:new 0 0 1400 980;" xml:space="preserve">
<style type="text/css">
	.st0{fill:#DBC469;}
	.st1{fill:#FFFFFF;}
</style>
<path class="st0" d="M835.9,738C788.2,811,718.6,869,636.9,902.4H1206V738H835.9z"/>
<rect x="1172.7" y="749.2" class="st1" width="22.1" height="22.1"/>
<rect x="1139.7" y="749.2" class="st1" width="22.1" height="22.1"/>
<rect x="1106.7" y="749.2" class="st1" width="22.1" height="22.1"/>
<rect x="1073.3" y="749.2" class="st1" width="22.1" height="22.1"/>
<rect x="1040.3" y="749.2" class="st1" width="22.1" height="22.1"/>
<rect x="1007.3" y="749.2" class="st1" width="22.1" height="22.1"/>
<rect x="974" y="749.2" class="st1" width="22.1" height="22.1"/>
<rect x="941" y="749.2" class="st1" width="22.1" height="22.1"/>
<rect x="908" y="749.2" class="st1" width="22.1" height="22.1"/>
<rect x="874.7" y="749.2" class="st1" width="22.1" height="22.1"/>
<rect x="841.7" y="749.2" class="st1" width="22.1" height="22.1"/>
<rect x="1172.7" y="871" class="st1" width="22.1" height="22.1"/>
<rect x="1139.7" y="871" class="st1" width="22.1" height="22.1"/>
<rect x="1106.7" y="871" class="st1" width="22.1" height="22.1"/>
<rect x="1073.3" y="871" class="st1" width="22.1" height="22.1"/>
<rect x="1040.3" y="871" class="st1" width="22.1" height="22.1"/>
<rect x="1007.3" y="871" class="st1" width="22.1" height="22.1"/>
<rect x="974" y="871" class="st1" width="22.1" height="22.1"/>
<rect x="941" y="871" class="st1" width="22.1" height="22.1"/>
<rect x="908" y="871" class="st1" width="22.1" height="22.1"/>
<rect x="874.7" y="871" class="st1" width="22.1" height="22.1"/>
<rect x="841.7" y="871" class="st1" width="22.1" height="22.1"/>
<rect x="808.7" y="871" class="st1" width="22.1" height="22.1"/>
<rect x="775.4" y="871" class="st1" width="22.1" height="22.1"/>
<rect x="710.3" y="871" class="st1" width="22.1" height="22.1"/>
<rect x="742.4" y="871" class="st1" width="22.1" height="22.1"/>
<rect x="1106.7" y="781.6" class="st1" width="88.4" height="79.5"/>
<rect x="1007.3" y="781.6" class="st1" width="88.4" height="79.5"/>
<rect x="908" y="781.6" class="st1" width="88.4" height="79.5"/>
<rect x="808.7" y="781.6" class="st1" width="88.4" height="79.5"/>
<path class="st1" d="M714.8,860.7h82.7v-72.4C773.4,815.8,745.6,840.2,714.8,860.7z"/>
<g>
	<g>
		<g transform="translate(0.000000,511.000000) scale(0.100000,-0.100000)">
			<path class="st0" d="M4463.9,3251.4c-1540.7-211-2769.6-1384.9-3075.3-2931.7c-48.9-256.8-48.9-1027.1,0-1284
				c287.4-1467.3,1384.8-2577,2852.1-2891.9c351.5-76.5,1045.5-76.5,1400.1,0c1439.9,308.8,2522.1,1391,2830.8,2830.8
				c76.5,354.6,76.5,1048.6,0,1400.1c-275.1,1287-1192.2,2326.4-2402.8,2723.8C5598.1,3251.4,4928.6,3315.5,4463.9,3251.4z
				 M5457.5,2762.2c110.1-15.3,241.5-42.8,290.5-58.1c88.6-30.5,91.7-33.6,82.5-198.7c-21.4-314.8,198.7-599.1,501.4-645.1
				c217.1-30.5,324.1,0,568.6,177.3c45.8,33.6,79.5,12.2,253.7-159c489.1-483,831.5-1189.1,889.6-1831.1l18.4-201.8l-76.5,159
				c-85.6,174.2-247.7,302.6-440.2,345.4c-418.8,94.8-837.6-324-742.9-742.8c61.2-272.1,339.3-510.5,596.1-510.5
				c256.8,0,559.4,210.9,623.7,434.1c27.5,97.8,27.5,97.8,30.5-55c9.2-458.5-214-1100.5-550.3-1589.6
				C6955.4-2905.5,5971-3440.4,5063.1-3440.4h-232.4l-3.1,256.8c0,223.1-12.2,281.2-97.8,449.4c-296.5,602.3-969,853-1552.9,580.8
				c-107-48.9-253.8-146.8-333.2-220.1l-140.6-128.4l-88.7,85.6c-94.8,91.7-382.1,492.1-415.8,577.8c-15.3,39.8,3.1,48.9,91.7,48.9
				c369.9,0,700.1,354.6,703.1,749c3.1,443.3-336.3,779.5-782.6,779.5c-82.5,0-198.7-21.4-259.8-45.8
				c-58.1-24.5-119.2-45.8-131.5-45.8s-15.3,73.4-9.2,162c58.1,797.9,314.8,1421.5,804,1956.5l159,174.2l91.7-91.7
				c262.9-266,660.3-281.2,944.6-36.7c70.3,61.2,152.8,165.1,183.5,232.3c61.2,137.5,76.5,397.4,27.5,525.8
				c-18.3,45.8-27.5,85.6-21.4,91.7c30.5,30.5,424.9,110.1,642,131.5C4910.3,2817.2,5142.7,2811.1,5457.5,2762.2z M6438.8,2422.8
				c113.1-64.2,116.2-113.1,6.2-116.2c-45.8,0-162,110.1-162,152.8C6282.9,2502.4,6307.3,2499.3,6438.8,2422.8z M3586.6,2370.9
				c27.5-174.2-165.1-314.9-327.1-238.5c-128.4,61.2-110.1,119.2,64.2,229.3C3507.1,2474.8,3571.3,2474.8,3586.6,2370.9z
				 M7530.1-145c21.4-21.4,36.7-73.4,36.7-116.2c0-100.8-52-152.8-152.8-152.8c-97.8,0-152.8,52-152.8,140.6
				C7261.2-138.9,7438.5-53.3,7530.1-145z M2369.9-765.5c180.4-94.8,210.9-327.1,64.2-476.9c-122.3-122.3-272.1-122.3-406.6,0
				C1761.6-1004,2052-600.5,2369.9-765.5z M3993.2-2593.6c73.4-39.8,177.3-128.4,232.3-198.7c107-143.7,183.5-421.8,140.6-538.1
				l-24.5-73.4l-259.8,73.4c-354.6,103.9-788.7,314.9-1005.7,492.2c-30.5,21.4,174.2,204.8,287.3,256.8
				C3543.8-2498.9,3822-2505,3993.2-2593.6z"/>
			<path class="st0" d="M4821.6,787.4c-70.3-24.5-201.8-113.1-293.5-195.6C3974.8,84.3,4201.1-793.1,4937.8-982.6
				c229.3-58.1,379.1-39.8,632.8,82.5c314.8,149.8,495.2,440.2,498.3,794.8c0,293.5-70.3,470.8-272.1,672.5
				c-116.2,116.2-220.1,186.5-321,220.1C5292.4,851.6,4998.9,851.6,4821.6,787.4z M5350.5,319.7c146.8-70.3,259.8-244.5,259.8-400.5
				c0-247.6-207.8-455.5-455.5-455.5c-470.8,0-638.9,614.4-229.3,846.8C5072.3,396.1,5188.5,399.1,5350.5,319.7z"/>
			<path class="st0" d="M5549.2-1205.7c-229.3-73.4-470.8-293.5-568.6-513.6c-76.5-171.2-73.4-510.5,6.2-684.8
				c275.1-596.1,1030.2-718.4,1464.3-235.4c171.2,192.6,241.5,397.4,223.1,651.1c-36.7,458.5-373,779.5-834.6,797.9
				C5723.4-1184.4,5592-1190.5,5549.2-1205.7z M5958.8-1679.7c210.9-88.6,302.7-311.8,217.1-531.9
				c-67.2-165.1-201.8-250.7-397.4-250.7c-128.4,0-159,15.3-262.9,119.2c-107,103.9-119.2,134.5-119.2,265.9
				c0,183.4,76.5,317.9,217.1,388.2C5741.8-1627.7,5827.4-1624.6,5958.8-1679.7z"/>
		</g>
	</g>
</g>
</svg>
