<?xml version="1.0" encoding="utf-8"?>
<!-- Generator: Adobe Illustrator 22.1.0, SVG Export Plug-In . SVG Version: 6.00 Build 0)  -->
<svg version="1.1" id="Calque_1" xmlns="http://www.w3.org/2000/svg" xmlns:xlink="http://www.w3.org/1999/xlink" x="0px" y="0px"
	 viewBox="0 0 1000 1000" style="enable-background:new 0 0 1000 1000;" xml:space="preserve">
<style type="text/css">
	.st0{fill:#DBC469;}
</style>
<g>
	<g transform="translate(0.000000,511.000000) scale(0.100000,-0.100000)">
		<path class="st0" d="M4349.3,4984.8C2245.6,4696.7,567.5,3093.8,150.1,981.7c-66.8-350.6-66.8-1402.5,0-1753.2
			C542.5-2775.1,2041-4290.3,4044.6-4720.3c480-104.4,1427.6-104.4,1911.8,0C7922.5-4298.7,9400.2-2821,9821.7-855
			c104.4,484.2,104.4,1431.8,0,1911.8C9446.1,2814.2,8193.8,4233.4,6540.8,4776C5898,4984.8,4983.8,5072.4,4349.3,4984.8z
			 M5706,4316.9c150.3-20.9,329.7-58.4,396.6-79.3c121-41.7,125.2-45.9,112.7-271.3c-29.2-429.9,271.3-818.1,684.6-880.8
			c296.4-41.7,442.5,0,776.4,242.1c62.6,45.9,108.5,16.7,346.4-217.1C8690.5,2451,9158.1,1486.8,9237.4,610.2l25.1-275.5
			l-104.4,217.1C9041.2,789.7,8819.9,965,8557,1023.4C7985.1,1152.8,7413.3,581,7542.6,9.1c83.5-371.5,463.3-697.1,814-697.1
			c350.6,0,763.9,288,851.6,592.7c37.5,133.6,37.5,133.6,41.7-75.1c12.5-626.1-292.2-1502.7-751.4-2170.6
			c-747.2-1081.1-2091.3-1811.6-3331-1811.6h-317.3L4846-3802c0,304.7-16.7,384-133.6,613.6C4307.6-2366,3389.3-2023.7,2592-2395.3
			c-146.1-66.8-346.5-200.4-455-300.5l-192-175.3l-121.1,116.9c-129.4,125.2-521.8,672-567.7,788.9c-20.9,54.3,4.2,66.8,125.2,66.8
			c505.1,0,955.9,484.2,960.1,1022.7c4.2,605.3-459.2,1064.4-1068.6,1064.4c-112.7,0-271.3-29.2-354.8-62.6
			c-79.3-33.4-162.8-62.6-179.5-62.6s-20.9,100.2-12.5,221.2c79.3,1089.5,429.9,1941,1097.8,2671.5L2041,3194l125.2-125.2
			c359-363.2,901.6-384,1289.8-50.1c96,83.5,208.7,225.4,250.5,317.2c83.5,187.8,104.4,542.6,37.5,718
			c-25,62.6-37.5,116.9-29.2,125.2c41.7,41.7,580.2,150.3,876.6,179.5C4958.8,4392,5276.1,4383.7,5706,4316.9z M7045.9,3853.5
			c154.5-87.6,158.7-154.4,8.4-158.6c-62.6,0-221.2,150.3-221.2,208.7C6833,3962.1,6866.4,3957.9,7045.9,3853.5z M3151.3,3782.6
			c37.6-237.9-225.4-430-446.6-325.6c-175.3,83.5-150.3,162.8,87.6,313.1C3042.8,3924.5,3130.5,3924.5,3151.3,3782.6z M8536.1,347.2
			c29.2-29.2,50.1-100.2,50.1-158.6c0-137.7-71-208.7-208.7-208.7c-133.6,0-208.7,71-208.7,192
			C8168.8,355.6,8410.9,472.4,8536.1,347.2z M1490-500.1c246.3-129.4,288-446.7,87.7-651.2c-167-167-371.5-167-555.2,0
			C659.4-825.7,1055.9-274.7,1490-500.1z M3706.5-2996.3c100.2-54.3,242.1-175.3,317.2-271.3c146.1-196.2,250.5-576,192-734.7
			l-33.4-100.2l-354.8,100.2c-484.2,141.9-1076.9,430-1373.3,672.1c-41.7,29.2,237.9,279.7,392.3,350.6
			C3092.9-2866.9,3472.8-2875.3,3706.5-2996.3z"/>
		<path class="st0" d="M4837.7,1620.3c-96-33.4-275.5-154.4-400.7-267.1c-755.6-692.9-446.6-1890.9,559.3-2149.7
			c313.1-79.3,517.6-54.3,864.1,112.7c429.9,204.6,676.2,601.1,680.4,1085.3c0,400.7-96,642.8-371.5,918.3
			c-158.6,158.6-300.5,254.6-438.3,300.5C5480.6,1708,5079.8,1708,4837.7,1620.3z M5559.9,981.7c200.4-96,354.8-333.9,354.8-546.8
			c0-338.1-283.8-622-622-622c-642.8,0-872.4,839-313.1,1156.3C5180,1086,5338.7,1090.2,5559.9,981.7z"/>
		<path class="st0" d="M5831.2-1101.2c-313.1-100.2-642.8-400.7-776.4-701.3c-104.4-233.7-100.2-697.1,8.4-935
			c375.7-814,1406.7-980.9,1999.5-321.4c233.7,263,329.8,542.6,304.7,889.1c-50.1,626.1-509.3,1064.4-1139.6,1089.5
			C6069.1-1072,5889.6-1080.4,5831.2-1101.2z M6390.5-1748.3c288-121,413.3-425.7,296.4-726.3c-91.8-225.4-275.5-342.3-542.6-342.3
			c-175.3,0-217.1,20.9-359,162.8c-146.1,141.9-162.8,183.6-162.8,363.1c0,250.4,104.4,434.1,296.4,530.1
			C6094.2-1677.3,6211.1-1673.1,6390.5-1748.3z"/>
	</g>
</g>
</svg>
